<?xml version="1.0" encoding="UTF-8" standalone="no"?>
<!-- Created with Inkscape (http://www.inkscape.org/) -->

<svg
   xmlns:dc="http://purl.org/dc/elements/1.1/"
   xmlns:cc="http://creativecommons.org/ns#"
   xmlns:rdf="http://www.w3.org/1999/02/22-rdf-syntax-ns#"
   xmlns:svg="http://www.w3.org/2000/svg"
   xmlns="http://www.w3.org/2000/svg"
   xmlns:sodipodi="http://sodipodi.sourceforge.net/DTD/sodipodi-0.dtd"
   xmlns:inkscape="http://www.inkscape.org/namespaces/inkscape"
   width="13.135129mm"
   height="13.07819mm"
   viewBox="0 0 13.135129 13.07819"
   version="1.1"
   id="svg8"
   inkscape:version="0.92.2 5c3e80d, 2017-08-06"
   sodipodi:docname="eberlywoods_brand_logo_letter.svg">
  <defs
     id="defs2" />
  <sodipodi:namedview
     id="base"
     pagecolor="#ffffff"
     bordercolor="#666666"
     borderopacity="1.0"
     inkscape:pageopacity="0.0"
     inkscape:pageshadow="2"
     inkscape:zoom="5.6"
     inkscape:cx="19.373562"
     inkscape:cy="20.789234"
     inkscape:document-units="mm"
     inkscape:current-layer="layer1"
     showgrid="false"
     inkscape:window-width="1380"
     inkscape:window-height="807"
     inkscape:window-x="2179"
     inkscape:window-y="84"
     inkscape:window-maximized="0"
     inkscape:snap-bbox="true"
     inkscape:bbox-paths="true"
     inkscape:bbox-nodes="true"
     inkscape:snap-bbox-edge-midpoints="true"
     inkscape:snap-bbox-midpoints="true"
     inkscape:object-paths="true"
     inkscape:snap-intersection-paths="true"
     inkscape:snap-smooth-nodes="true"
     inkscape:snap-midpoints="true"
     inkscape:snap-object-midpoints="true"
     inkscape:snap-center="true"
     inkscape:snap-text-baseline="true"
     inkscape:snap-page="true" />
  <metadata
     id="metadata5">
    <rdf:RDF>
      <cc:Work
         rdf:about="">
        <dc:format>image/svg+xml</dc:format>
        <dc:type
           rdf:resource="http://purl.org/dc/dcmitype/StillImage" />
        <dc:title></dc:title>
      </cc:Work>
    </rdf:RDF>
  </metadata>
  <g
     inkscape:label="Layer 1"
     inkscape:groupmode="layer"
     id="layer1"
     transform="translate(-99.265769,-142.29424)">
    <g
       id="g80"
       transform="translate(90.690435,134.88022)">
      <g
         transform="translate(-54.122078,-123.00753)"
         id="layer1-0"
         inkscape:label="Layer 1" />
      <g
         inkscape:label="Layer 2"
         id="layer2">
        <g
           id="g841">
          <g
             transform="translate(-54.122079,-123.00753)"
             aria-label="E"
             style="font-style:normal;font-variant:normal;font-weight:normal;font-stretch:normal;font-size:19.75555611px;line-height:1.25;font-family:'.Times LT MM';-inkscape-font-specification:'.Times LT MM';letter-spacing:0px;word-spacing:0px;fill:#000000;fill-opacity:1;stroke:none;stroke-width:0.26458332"
             id="text817">
            <path
               d="m 74.943542,143.49974 c 0.296333,-1.10631 0.592667,-2.23238 0.889,-3.33869 h -0.553156 c -0.869244,1.99531 -1.857022,2.58798 -4.326466,2.58798 -0.987778,0 -1.639711,0 -2.074334,-0.0395 -0.869244,-0.0593 -0.869244,-0.25682 -0.869244,-0.79022 v -10.07534 c 0,-0.31609 0.03951,-0.49389 0.158044,-0.57291 0.09878,-0.079 0.276578,-0.0988 0.493889,-0.0988 h 2.667 c 2.192867,0 2.706511,0.31609 3.002845,2.07434 h 0.493889 c -0.01976,-0.94827 -0.03951,-1.87678 -0.05927,-2.82505 h -10.4902 v 0.37536 c 1.2446,0.0988 1.718733,0.21731 1.718733,1.778 v 8.77146 c 0,1.52118 -0.454378,1.69898 -1.718733,1.77801 v 0.37535 z"
               style="font-style:normal;font-variant:normal;font-weight:normal;font-stretch:normal;font-size:19.75555611px;font-family:'.Times LT MM';-inkscape-font-specification:'.Times LT MM';stroke-width:0.26458332"
               id="path821"
               inkscape:connector-curvature="0"
               sodipodi:nodetypes="cccsccccsscccccssccc" />
          </g>
          <path
             transform="translate(-54.122079,-123.00753)"
             style="fill:#00701a;stroke:none;stroke-width:0.26458332px;stroke-linecap:butt;stroke-linejoin:miter;stroke-opacity:1;fill-opacity:1"
             d="m 68.009342,137.02718 c 0,0 0,-2.83706 6.428956,-1.15979 0,0 -4.613306,4.4457 -6.428956,1.15979 z"
             id="path826"
             inkscape:connector-curvature="0"
             sodipodi:nodetypes="ccc" />
          <path
             transform="translate(-54.122079,-123.00753)"
             style="fill:#ffffff;fill-opacity:1;stroke:none;stroke-width:0.26458332px;stroke-linecap:butt;stroke-linejoin:miter;stroke-opacity:1"
             d="m 68.02143,136.91134 c 0,0 2.308105,-0.65307 4.734557,-0.53314 0,0 -1.092701,0.11823 -4.595853,0.89517 0,0 -0.138704,-0.36203 -0.138704,-0.36203 z"
             id="path830"
             inkscape:connector-curvature="0" />
          <path
             transform="translate(-54.122079,-123.00753)"
             style="fill:#00c853;fill-opacity:1;stroke:none;stroke-width:0.26458332px;stroke-linecap:butt;stroke-linejoin:miter;stroke-opacity:1"
             d="m 62.697413,138.99986 c 2.803406,-1.27574 2.94775,-1.33584 5.324018,-2.08852 0,0 0.138706,0.36203 0.136707,0.35908 0,0 -3.051024,0.9346 -5.460725,1.72944 z"
             id="path824"
             inkscape:connector-curvature="0"
             sodipodi:nodetypes="cccc" />
        </g>
      </g>
    </g>
  </g>
</svg>
