<?xml version="1.0" encoding="UTF-8" standalone="no"?>
<!-- Created with Inkscape (http://www.inkscape.org/) -->

<svg
   xmlns:dc="http://purl.org/dc/elements/1.1/"
   xmlns:cc="http://creativecommons.org/ns#"
   xmlns:rdf="http://www.w3.org/1999/02/22-rdf-syntax-ns#"
   xmlns:svg="http://www.w3.org/2000/svg"
   xmlns="http://www.w3.org/2000/svg"
   xmlns:sodipodi="http://sodipodi.sourceforge.net/DTD/sodipodi-0.dtd"
   xmlns:inkscape="http://www.inkscape.org/namespaces/inkscape"
   version="1.1"
   id="svg318"
   width="201"
   height="133"
   viewBox="0 0 201 133"
   sodipodi:docname="nwoa_logo.svg"
   inkscape:version="0.92.2 5c3e80d, 2017-08-06">
  <metadata
     id="metadata324">
    <rdf:RDF>
      <cc:Work
         rdf:about="">
        <dc:format>image/svg+xml</dc:format>
        <dc:type
           rdf:resource="http://purl.org/dc/dcmitype/StillImage" />
      </cc:Work>
    </rdf:RDF>
  </metadata>
  <defs
     id="defs322" />
  <sodipodi:namedview
     pagecolor="#ffffff"
     bordercolor="#666666"
     borderopacity="1"
     objecttolerance="10"
     gridtolerance="10"
     guidetolerance="10"
     inkscape:pageopacity="0"
     inkscape:pageshadow="2"
     inkscape:window-width="1334"
     inkscape:window-height="826"
     id="namedview320"
     showgrid="false"
     inkscape:measure-start="44.7721,125.788"
     inkscape:measure-end="0,0"
     inkscape:snap-bbox="true"
     inkscape:zoom="2.8284272"
     inkscape:cx="157.81194"
     inkscape:cy="60.626202"
     inkscape:window-x="2153"
     inkscape:window-y="88"
     inkscape:window-maximized="0"
     inkscape:current-layer="layer3"
     inkscape:bbox-nodes="true"
     inkscape:bbox-paths="false"
     inkscape:snap-bbox-edge-midpoints="true"
     inkscape:snap-bbox-midpoints="true" />
  <circle
     style="fill:#ffffff;stroke-width:0.97144181"
     id="path336"
     cx="102.79766"
     cy="38.614216"
     r="3.25" />
  <g
     inkscape:groupmode="layer"
     id="layer3"
     inkscape:label="Layer 1">
    <path
       style="fill:#008000;stroke-width:0.16750629"
       d="m 97.015557,88.69501 -6.423897,-5.79704 1.422531,-1.443971 1.42253,-1.443976 0.07845,-1.200602 0.07845,-1.200603 -1.752449,-0.624364 c -1.048836,-0.373682 -1.79607,-0.559036 -1.861092,-0.461653 -0.691424,1.035556 -4.967855,6.227389 -5.049196,6.130009 L 78,61.500577 62,61.374947 c -5.4e-5,-0.0691 -1.882987,-11.617853 -3.957002,-25.663906 -2.074011,-14.046052 -3.751123,-25.591417 -3.726911,-25.656367 0.02421,-0.06495 5.961181,3.667688 13.193266,8.294751 7.232084,4.627063 16.654313,10.653637 20.938287,13.392389 l 7.789043,4.979546 0.04317,-10.139988 0.04317,-10.139989 h 9.458217 9.45821 l 1.18267,1.46568 1.18268,1.46568 -0.10441,2.261335 c -0.0574,1.243734 -0.13227,2.289725 -0.16633,2.324424 -0.0341,0.0347 -0.42299,-0.236944 -0.86429,-0.603651 -0.4413,-0.366707 -0.96701,-0.753142 -1.16824,-0.858744 -1.82336,-0.956861 -4.124,1.919024 -4.74057,5.925904 -0.0993,0.645216 -0.15886,2.764281 -0.13303,4.731318 l 0.0468,3.562701 21.24197,-13.337321 c 11.68308,-7.335527 21.28575,-13.293534 21.33927,-13.240015 0.0931,0.09309 -8.90019,50.976714 -9.05597,51.236253 l -16,0.126645 -2.02828,10.636139 c -1.12025,5.874475 -2.30912,10.636149 -2.37077,10.636149 -0.0616,0 -1.45083,-1.435504 -3.0871,-3.190007 -1.63626,-1.754501 -3.05689,-3.157892 -3.15694,-3.118647 -0.10006,0.03925 -0.8095,0.314073 -1.57654,0.610726 l -1.39462,0.539369 0.11681,1.281105 c 0.0643,0.704607 0.1265,1.287452 0.13833,1.29521 0.42989,0.282002 3.20412,2.662854 3.20412,2.749784 0,0.24682 -13.80468,11.55781 -14.10158,11.55427 -0.16718,-0.002 -3.19472,-2.6123 -6.727861,-5.80068 z"
       id="path360"
       inkscape:connector-curvature="0"
       sodipodi:nodetypes="cccccccccccscsscccccccccsccccscccssccscccsccc" />
    <circle
       style="fill:#ffffff;stroke-width:0.78544837"
       id="path437"
       cx="103.68626"
       cy="20.823696"
       r="2.5" />
    <text
       xml:space="preserve"
       style="font-style:normal;font-weight:normal;font-size:40px;line-height:1.25;font-family:sans-serif;letter-spacing:0px;word-spacing:0px;fill:#000000;fill-opacity:1;stroke:none"
       x="67.115952"
       y="11.242325"
       id="text642"><tspan
         sodipodi:role="line"
         id="tspan640"
         x="67.115952"
         y="11.242325"
         style="font-style:normal;font-variant:normal;font-weight:bold;font-stretch:normal;font-size:14.66666698px;font-family:Athelas;-inkscape-font-specification:'Athelas, Bold';font-variant-ligatures:normal;font-variant-caps:normal;font-variant-numeric:normal;font-feature-settings:normal;text-align:start;writing-mode:lr-tb;text-anchor:start">NATIONAL</tspan></text>
    <text
       xml:space="preserve"
       style="font-style:normal;font-weight:normal;font-size:40px;line-height:1.25;font-family:sans-serif;letter-spacing:0px;word-spacing:0px;fill:#ffffff;fill-opacity:1;stroke:none"
       x="66.087814"
       y="58.383369"
       id="text646"><tspan
         sodipodi:role="line"
         id="tspan644"
         x="66.087814"
         y="58.383369"
         style="font-style:normal;font-variant:normal;font-weight:bold;font-stretch:normal;font-size:24px;font-family:Athelas;-inkscape-font-specification:'Athelas, Bold';font-variant-ligatures:normal;font-variant-caps:normal;font-variant-numeric:normal;font-feature-settings:normal;text-align:start;writing-mode:lr-tb;text-anchor:start;fill:#ffffff">NWOA</tspan></text>
    <text
       xml:space="preserve"
       style="font-style:normal;font-weight:normal;font-size:40px;line-height:1.25;font-family:sans-serif;letter-spacing:0px;word-spacing:0px;fill:#ffffff;fill-opacity:1;stroke:none"
       x="94.15741"
       y="67.622063"
       id="text650"><tspan
         sodipodi:role="line"
         id="tspan648"
         x="94.15741"
         y="67.622063"
         style="font-style:normal;font-variant:normal;font-weight:normal;font-stretch:normal;font-size:12px;font-family:Athelas;-inkscape-font-specification:'Athelas, Normal';font-variant-ligatures:normal;font-variant-caps:normal;font-variant-numeric:normal;font-feature-settings:normal;text-align:start;writing-mode:lr-tb;text-anchor:start;fill:#ffffff">.net</tspan></text>
    <text
       xml:space="preserve"
       style="font-style:normal;font-variant:normal;font-weight:normal;font-stretch:normal;font-size:16px;line-height:1.25;font-family:Athelas;-inkscape-font-specification:'Athelas, Normal';font-variant-ligatures:normal;font-variant-caps:normal;font-variant-numeric:normal;font-feature-settings:normal;text-align:start;letter-spacing:0px;word-spacing:0px;writing-mode:lr-tb;text-anchor:start;fill:#008000;fill-opacity:1;stroke:none"
       x="21.631668"
       y="127.9748"
       id="text677"
       inkscape:label="text677"><tspan
         sodipodi:role="line"
         id="tspan675"
         x="21.631668"
         y="127.9748"
         style="font-style:italic;font-variant:normal;font-weight:normal;font-stretch:normal;font-size:17.33333397px;font-family:Athelas;-inkscape-font-specification:'Athelas, Italic';font-variant-ligatures:normal;font-variant-caps:normal;font-variant-numeric:normal;font-feature-settings:normal;text-align:start;writing-mode:lr-tb;text-anchor:start;fill:#008000">&quot;Independent by Nature&quot;</tspan></text>
    <rect
       style="fill:#000000"
       id="rect679"
       width="189.03796"
       height="1.1844484"
       x="9.1672735"
       y="113.33816" />
    <g
       id="g4439">
      <g
         transform="translate(12)"
         id="text673"
         style="font-style:normal;font-variant:normal;font-weight:normal;font-stretch:normal;font-size:16px;line-height:1.25;font-family:Athelas;-inkscape-font-specification:'Athelas, Normal';font-variant-ligatures:normal;font-variant-caps:normal;font-variant-numeric:normal;font-feature-settings:normal;text-align:start;letter-spacing:0.51999998px;word-spacing:4.54999971px;writing-mode:lr-tb;text-anchor:start;fill:#000000;fill-opacity:1;stroke:none"
         aria-label="WOODLAND OWNERS">
        <path
           inkscape:connector-curvature="0"
           id="path4370"
           style="font-style:normal;font-variant:normal;font-weight:bold;font-stretch:normal;font-size:16px;font-family:Athelas;-inkscape-font-specification:'Athelas, Bold';font-variant-ligatures:normal;font-variant-caps:normal;font-variant-numeric:normal;font-feature-settings:normal;text-align:start;letter-spacing:0.51999998px;word-spacing:4.54999971px;writing-mode:lr-tb;text-anchor:start"
           d="m 10.917879,99.952306 q 0.08,-0.016 0.144,-0.016 0.064,-0.016 0.112,-0.016 0.128,0 0.176,0.064 0.064,0.048 0.128,0.208004 l 2.624,6.912 1.952,-5.648 q 0.08,-0.208 0.08,-0.336 0,-0.224 -0.208,-0.32 -0.208,-0.112 -0.72,-0.176 -0.192,-0.016 -0.192,-0.304 0,-0.032 0,-0.064 0.016,-0.048 0.016,-0.096 l 0.016,-0.128 q 0.272,0.032 0.768,0.064 0.512,0.016 0.944,0.016 0.464,0 0.88,-0.016 0.416,-0.016 0.736,-0.064 l 0.016,0.128 q 0,0.048 0,0.096 0.016,0.048 0.016,0.08 0,0.304 -0.208,0.32 -0.496,0.048 -0.736,0.16 -0.224,0.112 -0.336,0.432 l -3.376,9.44 q -0.08,0.016 -0.112,0.016 -0.032,0 -0.112,0 -0.112,0 -0.176,-0.048 -0.048,-0.048 -0.128,-0.224 l -2.608,-6.944 -2.5439997,7.2 q -0.08,0.016 -0.128,0.016 -0.032,0 -0.096,0 -0.128,0 -0.192,-0.048 -0.048,-0.048 -0.112,-0.224 l -3.504,-9.264 q -0.08,-0.224 -0.288,-0.336 -0.192,-0.128 -0.8,-0.192 -0.208,-0.016 -0.208,-0.336 0,-0.048 0,-0.128 0,-0.096 0.032,-0.144 0.24,0.016 0.544,0.032 0.304,0.016 0.608,0.032 0.32,0 0.608,0.016 0.304,0 0.528,0 0.528,0 1.152,-0.016 0.624,-0.032 1.12,-0.064 0.016,0.08 0.016,0.16 0.016,0.08 0.016,0.128 0,0.288 -0.208,0.304 -0.512,0.048 -0.72,0.16 -0.208,0.112 -0.208,0.304 0,0.064 0.016,0.128 0.016,0.048 0.048,0.128 l 2.096,5.776 z" />
        <path
           inkscape:connector-curvature="0"
           id="path4372"
           style="font-style:normal;font-variant:normal;font-weight:bold;font-stretch:normal;font-size:16px;font-family:Athelas;-inkscape-font-specification:'Athelas, Bold';font-variant-ligatures:normal;font-variant-caps:normal;font-variant-numeric:normal;font-feature-settings:normal;text-align:start;letter-spacing:0.51999998px;word-spacing:4.54999971px;writing-mode:lr-tb;text-anchor:start"
           d="m 19.50713,105.31231 q 0,-1.12 0.416,-2.096 0.432,-0.976 1.168,-1.712 0.736,-0.736 1.712,-1.152 0.992,-0.432004 2.112,-0.432004 1.152,0 2.144,0.400004 0.992,0.4 1.712,1.12 0.736,0.72 1.152,1.712 0.416,0.992 0.416,2.16 0,1.12 -0.432,2.112 -0.416,0.976 -1.152,1.712 -0.736,0.72 -1.728,1.152 -0.992,0.416 -2.112,0.416 -1.152,0 -2.144,-0.4 -0.992,-0.4 -1.712,-1.12 -0.72,-0.72 -1.136,-1.696 -0.416,-0.992 -0.416,-2.176 z m 5.648,4.56 q 0.672,0 1.216,-0.288 0.544,-0.304 0.928,-0.816 0.4,-0.512 0.608,-1.2 0.224,-0.688 0.224,-1.472 0,-1.136 -0.224,-2.112 -0.208,-0.976 -0.656,-1.68 -0.432,-0.72 -1.104,-1.12 -0.656,-0.416 -1.536,-0.416 -0.56,0 -1.088,0.256 -0.528,0.24 -0.928,0.72 -0.4,0.464 -0.64,1.136 -0.24,0.672 -0.24,1.52 0,1.184 0.224,2.192 0.24,1.008 0.672,1.744 0.448,0.72 1.088,1.136 0.64,0.4 1.456,0.4 z" />
        <path
           inkscape:connector-curvature="0"
           id="path4374"
           style="font-style:normal;font-variant:normal;font-weight:bold;font-stretch:normal;font-size:16px;font-family:Athelas;-inkscape-font-specification:'Athelas, Bold';font-variant-ligatures:normal;font-variant-caps:normal;font-variant-numeric:normal;font-feature-settings:normal;text-align:start;letter-spacing:0.51999998px;word-spacing:4.54999971px;writing-mode:lr-tb;text-anchor:start"
           d="m 31.96463,105.31231 q 0,-1.12 0.416,-2.096 0.432,-0.976 1.168,-1.712 0.736,-0.736 1.712,-1.152 0.992,-0.432004 2.112,-0.432004 1.152,0 2.144,0.400004 0.992,0.4 1.712,1.12 0.736,0.72 1.152,1.712 0.416,0.992 0.416,2.16 0,1.12 -0.432,2.112 -0.416,0.976 -1.152,1.712 -0.736,0.72 -1.728,1.152 -0.992,0.416 -2.112,0.416 -1.152,0 -2.144,-0.4 -0.992,-0.4 -1.712,-1.12 -0.72,-0.72 -1.136,-1.696 -0.416,-0.992 -0.416,-2.176 z m 5.648,4.56 q 0.672,0 1.216,-0.288 0.544,-0.304 0.928,-0.816 0.4,-0.512 0.608,-1.2 0.224,-0.688 0.224,-1.472 0,-1.136 -0.224,-2.112 -0.208,-0.976 -0.656,-1.68 -0.432,-0.72 -1.104,-1.12 -0.656,-0.416 -1.536,-0.416 -0.56,0 -1.088,0.256 -0.528,0.24 -0.928,0.72 -0.4,0.464 -0.64,1.136 -0.24,0.672 -0.24,1.52 0,1.184 0.224,2.192 0.24,1.008 0.672,1.744 0.448,0.72 1.088,1.136 0.64,0.4 1.456,0.4 z" />
        <path
           inkscape:connector-curvature="0"
           id="path4376"
           style="font-style:normal;font-variant:normal;font-weight:bold;font-stretch:normal;font-size:16px;font-family:Athelas;-inkscape-font-specification:'Athelas, Bold';font-variant-ligatures:normal;font-variant-caps:normal;font-variant-numeric:normal;font-feature-settings:normal;text-align:start;letter-spacing:0.51999998px;word-spacing:4.54999971px;writing-mode:lr-tb;text-anchor:start"
           d="m 55.350131,105.31231 q 0,0.944 -0.32,1.872 -0.32,0.928 -0.992,1.68 -0.672,0.736 -1.712,1.2 -1.04,0.448 -2.464,0.448 h -3.28 q -0.416,0 -0.976,0.016 -0.544,0.032 -1.04,0.064 -0.032,-0.064 -0.032,-0.144 0,-0.08 0,-0.128 0,-0.176 0.048,-0.224 0.064,-0.064 0.144,-0.08 0.464,-0.08 0.736,-0.208 0.288,-0.144 0.288,-0.48 v -8.016 q 0,-0.32 -0.24,-0.448 -0.224,-0.144 -0.784,-0.24 -0.128,-0.032 -0.16,-0.096 -0.032,-0.08 -0.032,-0.208 0,-0.048 0,-0.128 0,-0.08 0.032,-0.16 0.336,0.032 0.592,0.048 0.272,0 0.496,0.016 0.224,0.016 0.448,0.016 0.224,0 0.464,0 h 3.248 q 1.36,0 2.384,0.416 1.04,0.416 1.728,1.12 0.704,0.704 1.056,1.648 0.368,0.944 0.368,2.016 z m -2.208,0.304 q 0,-1.248 -0.288,-2.144 -0.288,-0.896 -0.848,-1.456 -0.544,-0.576 -1.376,-0.832 -0.816,-0.272 -1.872,-0.272 h -0.992 v 8.224 q 0,0.16 0.048,0.272 0.048,0.112 0.192,0.176 0.144,0.064 0.4,0.096 0.256,0.032 0.688,0.032 2.08,0 3.056,-1.104 0.992,-1.104 0.992,-2.992 z" />
        <path
           sodipodi:nodetypes="sssscsccssccccscccssccssccsccs"
           inkscape:connector-curvature="0"
           id="path4378"
           style="font-style:normal;font-variant:normal;font-weight:bold;font-stretch:normal;font-size:16px;font-family:Athelas;-inkscape-font-specification:'Athelas, Bold';font-variant-ligatures:normal;font-variant-caps:normal;font-variant-numeric:normal;font-feature-settings:normal;text-align:start;letter-spacing:0.51999998px;word-spacing:4.54999971px;writing-mode:lr-tb;text-anchor:start"
           d="m 60.491131,109.15231 c 0,0.224 0.144,0.37333 0.432,0.448 0.288,0.0747 0.762667,0.112 1.424,0.112 h 0.608 c 0.266667,0 0.496,-0.0267 0.688,-0.08 0.202667,-0.064 0.378667,-0.16533 0.528,-0.304 0.149333,-0.13867 0.282667,-0.31467 0.4,-0.528 0.128,-0.224 0.250667,-0.49067 0.368,-0.8 0.032,-0.0853 0.112,-0.128 0.24,-0.128 0.05333,0 0.117333,0.016 0.192,0.048 l 0.224,0.096 c -0.08533,0.34133 -0.165333,0.71467 -0.24,1.12 -0.064,0.39467 -0.122667,0.784 -0.176,1.168 -0.01067,0.128 -0.048,0.208 -0.112,0.24 -0.05333,0.032 -0.112,0.048 -0.176,0.048 -0.08533,0 -0.208,-0.005 -0.368,-0.016 -0.149333,-0.0107 -0.314667,-0.0213 -0.496,-0.032 -0.181333,0 -0.368,-0.005 -0.56,-0.016 -0.181333,-0.0107 -0.341333,-0.016 -0.48,-0.016 h -3.632 c -0.309333,0 -0.666667,0.005 -1.072,0.016 -0.394667,0.0213 -0.752,0.0427 -1.072,0.064 -0.02133,-0.0427 -0.032,-0.096 -0.032,-0.16 v -0.16 c 0,-0.16 0.05333,-0.24533 0.16,-0.256 0.405333,-0.0747 0.693333,-0.15467 0.864,-0.24 0.181333,-0.0853 0.272,-0.23467 0.272,-0.448 v -14.016 l 2.016,0.032 z" />
        <path
           inkscape:connector-curvature="0"
           id="path4380"
           style="font-style:normal;font-variant:normal;font-weight:bold;font-stretch:normal;font-size:16px;font-family:Athelas;-inkscape-font-specification:'Athelas, Bold';font-variant-ligatures:normal;font-variant-caps:normal;font-variant-numeric:normal;font-feature-settings:normal;text-align:start;letter-spacing:0.51999998px;word-spacing:4.54999971px;writing-mode:lr-tb;text-anchor:start"
           d="m 72.824128,106.99231 h -3.36 l -0.832,2.224 q -0.048,0.08 -0.064,0.176 -0.016,0.096 -0.016,0.144 0,0.176 0.16,0.288 0.176,0.112 0.688,0.192 0.224,0.032 0.224,0.304 0,0.112 -0.032,0.272 -0.432,-0.032 -0.912,-0.064 -0.48,-0.016 -0.944,-0.016 -0.32,0 -0.672,0.016 -0.352,0.016 -0.784,0.064 -0.032,-0.064 -0.032,-0.144 0,-0.08 0,-0.128 0,-0.304 0.208,-0.32 0.496,-0.096 0.704,-0.208 0.224,-0.112 0.352,-0.384 l 3.856,-9.216 q 0.128,-0.272004 0.384,-0.272004 0.08,0 0.16,0.016 0.08,0 0.176,0.016 l 3.856,9.504004 q 0.096,0.24 0.368,0.368 0.272,0.112 0.592,0.16 0.24,0.048 0.24,0.32 0,0.128 -0.032,0.288 -0.512,-0.032 -1.008,-0.064 -0.496,-0.016 -0.928,-0.016 -0.224,0 -0.544,0 -0.32,0.016 -0.656,0.032 -0.336,0.016 -0.672,0.016 -0.32,0.016 -0.544,0.032 -0.032,-0.064 -0.032,-0.144 0,-0.08 0,-0.128 0,-0.144 0.048,-0.208 0.064,-0.08 0.128,-0.096 0.416,-0.08 0.608,-0.176 0.208,-0.112 0.208,-0.32 0,-0.096 -0.048,-0.24 z m -0.304,-0.8 -1.36,-3.6 -1.392,3.6 z" />
        <path
           inkscape:connector-curvature="0"
           id="path4382"
           style="font-style:normal;font-variant:normal;font-weight:bold;font-stretch:normal;font-size:16px;font-family:Athelas;-inkscape-font-specification:'Athelas, Bold';font-variant-ligatures:normal;font-variant-caps:normal;font-variant-numeric:normal;font-feature-settings:normal;text-align:start;letter-spacing:0.51999998px;word-spacing:4.54999971px;writing-mode:lr-tb;text-anchor:start"
           d="m 86.759382,107.02431 v -5.68 q 0,-0.352 -0.24,-0.496 -0.24,-0.144 -0.848,-0.224 -0.208,-0.048 -0.208,-0.304 0,-0.048 0,-0.128 0,-0.08 0.032,-0.16 0.4,0.048 0.784,0.064 0.384,0.016 0.896,0.016 0.512,0 0.88,-0.016 0.368,-0.016 0.736,-0.064 0.016,0.08 0.016,0.16 0.016,0.08 0.016,0.128 0,0.272 -0.192,0.304 -0.528,0.08 -0.72,0.224 -0.192,0.144 -0.192,0.464 v 9.36 q -0.064,0.016 -0.224,0.016 -0.144,0.016 -0.192,0.016 -0.112,0 -0.24,-0.064 -0.128,-0.048 -0.272,-0.224 l -6.304,-8 v 6.912 q 0,0.16 0.016,0.272 0.032,0.096 0.128,0.176 0.112,0.064 0.304,0.128 0.208,0.048 0.544,0.112 0.08,0.016 0.128,0.08 0.064,0.048 0.064,0.224 0,0.112 -0.032,0.272 -0.4,-0.032 -0.752,-0.064 -0.352,-0.016 -0.816,-0.016 -0.464,0 -0.896,0.016 -0.416,0.032 -0.768,0.064 -0.032,-0.064 -0.032,-0.144 0,-0.08 0,-0.128 0,-0.16 0.048,-0.224 0.064,-0.064 0.144,-0.08 0.576,-0.096 0.768,-0.24 0.192,-0.144 0.192,-0.448 v -8.096 q 0,-0.256 -0.176,-0.384 -0.16,-0.144 -0.752,-0.224 -0.192,-0.048 -0.192,-0.304 0,-0.032 0,-0.064 0,-0.048 0.016,-0.096 l 0.016,-0.128 q 0.224,0.016 0.432,0.032 0.208,0 0.416,0.016 0.352,0.016 0.704,0.032 0.368,0 0.592,0 0.464,0 0.608,0.048 0.144,0.032 0.256,0.144 z" />
        <path
           inkscape:connector-curvature="0"
           id="path4384"
           style="font-style:normal;font-variant:normal;font-weight:bold;font-stretch:normal;font-size:16px;font-family:Athelas;-inkscape-font-specification:'Athelas, Bold';font-variant-ligatures:normal;font-variant-caps:normal;font-variant-numeric:normal;font-feature-settings:normal;text-align:start;letter-spacing:0.51999998px;word-spacing:4.54999971px;writing-mode:lr-tb;text-anchor:start"
           d="m 101.39888,105.31231 q 0,0.944 -0.32,1.872 -0.32,0.928 -0.992,1.68 -0.672001,0.736 -1.712001,1.2 -1.04,0.448 -2.464,0.448 h -3.28 q -0.416,0 -0.976,0.016 -0.544,0.032 -1.04,0.064 -0.032,-0.064 -0.032,-0.144 0,-0.08 0,-0.128 0,-0.176 0.048,-0.224 0.064,-0.064 0.144,-0.08 0.464,-0.08 0.736,-0.208 0.288,-0.144 0.288,-0.48 v -8.016 q 0,-0.32 -0.24,-0.448 -0.224,-0.144 -0.784,-0.24 -0.128,-0.032 -0.16,-0.096 -0.032,-0.08 -0.032,-0.208 0,-0.048 0,-0.128 0,-0.08 0.032,-0.16 0.336,0.032 0.592,0.048 0.272,0 0.496,0.016 0.224,0.016 0.448,0.016 0.224,0 0.464,0 h 3.248 q 1.36,0 2.384,0.416 1.04,0.416 1.728,1.12 0.704001,0.704 1.056001,1.648 0.368,0.944 0.368,2.016 z m -2.208001,0.304 q 0,-1.248 -0.288,-2.144 -0.288,-0.896 -0.848,-1.456 -0.544,-0.576 -1.376,-0.832 -0.816,-0.272 -1.872,-0.272 h -0.992 v 8.224 q 0,0.16 0.048,0.272 0.048,0.112 0.192,0.176 0.144,0.064 0.4,0.096 0.256,0.032 0.688,0.032 2.08,0 3.056,-1.104 0.992,-1.104 0.992,-2.992 z" />
        <path
           inkscape:connector-curvature="0"
           id="path4386"
           style="font-style:normal;font-variant:normal;font-weight:bold;font-stretch:normal;font-size:16px;font-family:Athelas;-inkscape-font-specification:'Athelas, Bold';font-variant-ligatures:normal;font-variant-caps:normal;font-variant-numeric:normal;font-feature-settings:normal;text-align:start;letter-spacing:0.51999998px;word-spacing:4.54999971px;writing-mode:lr-tb;text-anchor:start"
           d="m 111.56088,105.31231 q 0,-1.12 0.416,-2.096 0.432,-0.976 1.168,-1.712 0.736,-0.736 1.712,-1.152 0.992,-0.432004 2.112,-0.432004 1.152,0 2.144,0.400004 0.992,0.4 1.712,1.12 0.736,0.72 1.152,1.712 0.416,0.992 0.416,2.16 0,1.12 -0.432,2.112 -0.416,0.976 -1.152,1.712 -0.736,0.72 -1.728,1.152 -0.992,0.416 -2.112,0.416 -1.152,0 -2.144,-0.4 -0.992,-0.4 -1.712,-1.12 -0.72,-0.72 -1.136,-1.696 -0.416,-0.992 -0.416,-2.176 z m 5.648,4.56 q 0.672,0 1.216,-0.288 0.544,-0.304 0.928,-0.816 0.4,-0.512 0.608,-1.2 0.224,-0.688 0.224,-1.472 0,-1.136 -0.224,-2.112 -0.208,-0.976 -0.656,-1.68 -0.432,-0.72 -1.104,-1.12 -0.656,-0.416 -1.536,-0.416 -0.56,0 -1.088,0.256 -0.528,0.24 -0.928,0.72 -0.4,0.464 -0.64,1.136 -0.24,0.672 -0.24,1.52 0,1.184 0.224,2.192 0.24,1.008 0.672,1.744 0.448,0.72 1.088,1.136 0.64,0.4 1.456,0.4 z" />
        <path
           inkscape:connector-curvature="0"
           id="path4388"
           style="font-style:normal;font-variant:normal;font-weight:bold;font-stretch:normal;font-size:16px;font-family:Athelas;-inkscape-font-specification:'Athelas, Bold';font-variant-ligatures:normal;font-variant-caps:normal;font-variant-numeric:normal;font-feature-settings:normal;text-align:start;letter-spacing:0.51999998px;word-spacing:4.54999971px;writing-mode:lr-tb;text-anchor:start"
           d="m 130.91788,99.952306 q 0.08,-0.016 0.144,-0.016 0.064,-0.016 0.112,-0.016 0.128,0 0.176,0.064 0.064,0.048 0.128,0.208004 l 2.624,6.912 1.952,-5.648 q 0.08,-0.208 0.08,-0.336 0,-0.224 -0.208,-0.32 -0.208,-0.112 -0.72,-0.176 -0.192,-0.016 -0.192,-0.304 0,-0.032 0,-0.064 0.016,-0.048 0.016,-0.096 l 0.016,-0.128 q 0.272,0.032 0.768,0.064 0.512,0.016 0.944,0.016 0.464,0 0.88,-0.016 0.416,-0.016 0.736,-0.064 l 0.016,0.128 q 0,0.048 0,0.096 0.016,0.048 0.016,0.08 0,0.304 -0.208,0.32 -0.496,0.048 -0.736,0.16 -0.224,0.112 -0.336,0.432 l -3.376,9.44 q -0.08,0.016 -0.112,0.016 -0.032,0 -0.112,0 -0.112,0 -0.176,-0.048 -0.048,-0.048 -0.128,-0.224 l -2.608,-6.944 -2.544,7.2 q -0.08,0.016 -0.128,0.016 -0.032,0 -0.096,0 -0.128,0 -0.192,-0.048 -0.048,-0.048 -0.112,-0.224 l -3.504,-9.264 q -0.08,-0.224 -0.288,-0.336 -0.192,-0.128 -0.8,-0.192 -0.208,-0.016 -0.208,-0.336 0,-0.048 0,-0.128 0,-0.096 0.032,-0.144 0.24,0.016 0.544,0.032 0.304,0.016 0.608,0.032 0.32,0 0.608,0.016 0.304,0 0.528,0 0.528,0 1.152,-0.016 0.624,-0.032 1.12,-0.064 0.016,0.08 0.016,0.16 0.016,0.08 0.016,0.128 0,0.288 -0.208,0.304 -0.512,0.048 -0.72,0.16 -0.208,0.112 -0.208,0.304 0,0.064 0.016,0.128 0.016,0.048 0.048,0.128 l 2.096,5.776 z" />
        <path
           inkscape:connector-curvature="0"
           id="path4390"
           style="font-style:normal;font-variant:normal;font-weight:bold;font-stretch:normal;font-size:16px;font-family:Athelas;-inkscape-font-specification:'Athelas, Bold';font-variant-ligatures:normal;font-variant-caps:normal;font-variant-numeric:normal;font-feature-settings:normal;text-align:start;letter-spacing:0.51999998px;word-spacing:4.54999971px;writing-mode:lr-tb;text-anchor:start"
           d="m 148.00313,107.02431 v -5.68 q 0,-0.352 -0.24,-0.496 -0.24,-0.144 -0.848,-0.224 -0.208,-0.048 -0.208,-0.304 0,-0.048 0,-0.128 0,-0.08 0.032,-0.16 0.4,0.048 0.784,0.064 0.384,0.016 0.896,0.016 0.512,0 0.88,-0.016 0.368,-0.016 0.736,-0.064 0.016,0.08 0.016,0.16 0.016,0.08 0.016,0.128 0,0.272 -0.192,0.304 -0.528,0.08 -0.72,0.224 -0.192,0.144 -0.192,0.464 v 9.36 q -0.064,0.016 -0.224,0.016 -0.144,0.016 -0.192,0.016 -0.112,0 -0.24,-0.064 -0.128,-0.048 -0.272,-0.224 l -6.304,-8 v 6.912 q 0,0.16 0.016,0.272 0.032,0.096 0.128,0.176 0.112,0.064 0.304,0.128 0.208,0.048 0.544,0.112 0.08,0.016 0.128,0.08 0.064,0.048 0.064,0.224 0,0.112 -0.032,0.272 -0.4,-0.032 -0.752,-0.064 -0.352,-0.016 -0.816,-0.016 -0.464,0 -0.896,0.016 -0.416,0.032 -0.768,0.064 -0.032,-0.064 -0.032,-0.144 0,-0.08 0,-0.128 0,-0.16 0.048,-0.224 0.064,-0.064 0.144,-0.08 0.576,-0.096 0.768,-0.24 0.192,-0.144 0.192,-0.448 v -8.096 q 0,-0.256 -0.176,-0.384 -0.16,-0.144 -0.752,-0.224 -0.192,-0.048 -0.192,-0.304 0,-0.032 0,-0.064 0,-0.048 0.016,-0.096 l 0.016,-0.128 q 0.224,0.016 0.432,0.032 0.208,0 0.416,0.016 0.352,0.016 0.704,0.032 0.368,0 0.592,0 0.464,0 0.608,0.048 0.144,0.032 0.256,0.144 z" />
        <path
           inkscape:connector-curvature="0"
           id="path4392"
           style="font-style:normal;font-variant:normal;font-weight:bold;font-stretch:normal;font-size:16px;font-family:Athelas;-inkscape-font-specification:'Athelas, Bold';font-variant-ligatures:normal;font-variant-caps:normal;font-variant-numeric:normal;font-feature-settings:normal;text-align:start;letter-spacing:0.51999998px;word-spacing:4.54999971px;writing-mode:lr-tb;text-anchor:start"
           d="m 155.13862,100.91231 v 3.856 h 2.256 q 0.304,0 0.416,-0.24 0.112,-0.256 0.192,-0.816 0.016,-0.128 0.096,-0.16 0.08,-0.048 0.208,-0.048 0.048,0 0.144,0.016 0.112,0 0.16,0.016 -0.032,0.368 -0.064,0.864 -0.016,0.48 -0.016,0.816 0,0.288 0.016,0.688 0.016,0.384 0.064,0.88 -0.048,0.032 -0.16,0.048 -0.096,0 -0.144,0 -0.288,0 -0.304,-0.224 -0.096,-0.608 -0.224,-0.816 -0.112,-0.224 -0.384,-0.224 h -2.256 v 3.584 q 0,0.336 0.416,0.448 0.416,0.112 1.408,0.112 h 0.672 q 0.48,0 0.8,-0.128 0.336,-0.128 0.592,-0.352 0.256,-0.24 0.448,-0.544 0.192,-0.32 0.384,-0.704 0.048,-0.112 0.224,-0.112 0.08,0 0.192,0.048 0.112,0.048 0.224,0.096 -0.032,0.128 -0.08,0.24 -0.032,0.112 -0.064,0.224 -0.08,0.176 -0.128,0.384 -0.048,0.208 -0.096,0.336 -0.032,0.16 -0.08,0.368 -0.032,0.192 -0.08,0.384 -0.032,0.176 -0.08,0.32 -0.032,0.144 -0.048,0.192 -0.064,0.128 -0.256,0.128 -0.128,0 -0.368,-0.016 -0.24,-0.016 -0.528,-0.032 -0.272,0 -0.56,-0.016 -0.288,-0.016 -0.496,-0.016 h -3.632 q -0.464,0 -1.072,0.016 -0.592,0.032 -1.072,0.064 -0.032,-0.064 -0.032,-0.16 0,-0.112 0,-0.16 0,-0.24 0.16,-0.256 0.608,-0.112 0.864,-0.24 0.272,-0.128 0.272,-0.448 v -8.016 q 0,-0.16 -0.048,-0.256 -0.048,-0.112 -0.192,-0.176 -0.128,-0.08 -0.352,-0.128 -0.208,-0.064 -0.544,-0.128 -0.16,-0.048 -0.16,-0.288 0,-0.08 0,-0.144 0,-0.08 0.032,-0.16 0.688,0.048 1.216,0.064 0.528,0.016 0.912,0.016 h 3.28 q 0.72,0 1.232,-0.048 0.528,-0.048 0.72,-0.048 0.176,0 0.256,0.144 0.048,0.128 0.08,0.48 0.032,0.336 0.112,0.704 0.048,0.272 0.112,0.528 0.064,0.256 0.192,0.624 -0.08,0.032 -0.176,0.064 -0.096,0.032 -0.192,0.032 -0.176,0 -0.256,-0.144 -0.192,-0.416 -0.384,-0.704 -0.176,-0.304 -0.416,-0.48 -0.224,-0.192 -0.544,-0.272 -0.304,-0.08 -0.736,-0.08 z" />
        <path
           inkscape:connector-curvature="0"
           id="path4394"
           style="font-style:normal;font-variant:normal;font-weight:bold;font-stretch:normal;font-size:16px;font-family:Athelas;-inkscape-font-specification:'Athelas, Bold';font-variant-ligatures:normal;font-variant-caps:normal;font-variant-numeric:normal;font-feature-settings:normal;text-align:start;letter-spacing:0.51999998px;word-spacing:4.54999971px;writing-mode:lr-tb;text-anchor:start"
           d="m 166.06538,105.87231 h -0.688 v 3.344 q 0,0.368 0.304,0.528 0.32,0.144 1.072,0.24 0.224,0.032 0.224,0.32 0,0.128 -0.032,0.288 -0.464,-0.032 -1.168,-0.064 -0.688,-0.016 -1.504,-0.016 -0.576,0 -1.12,0.016 -0.528,0.032 -0.992,0.064 -0.032,-0.064 -0.032,-0.144 0,-0.08 0,-0.128 0,-0.272 0.176,-0.304 0.336,-0.064 0.544,-0.112 0.208,-0.064 0.32,-0.128 0.112,-0.08 0.144,-0.176 0.048,-0.112 0.048,-0.272 v -8.016 q 0,-0.32 -0.24,-0.464 -0.224,-0.144 -0.88,-0.224 -0.08,-0.032 -0.128,-0.096 -0.048,-0.064 -0.048,-0.224 0,-0.064 0,-0.144 0,-0.08 0.032,-0.128 0.448,0.032 1.024,0.064 0.592,0.016 1.056,0.016 h 2.416 q 0.848,0 1.52,0.208 0.672,0.208 1.136,0.592 0.48,0.384 0.72,0.912 0.256,0.528 0.256,1.168 0,0.848 -0.528,1.552 -0.512,0.688 -1.424,1.04 l 2.512,3.664 q 0.288,0.416 0.656,0.576 0.384,0.16 0.704,0.24 0.08,0.016 0.128,0.08 0.048,0.048 0.048,0.192 0,0.064 0,0.144 0,0.08 -0.032,0.16 -0.176,-0.016 -0.496,-0.032 -0.32,0 -0.672,-0.016 -0.336,-0.016 -0.688,-0.032 -0.336,0 -0.56,0 -0.336,0 -0.672,-0.272 -0.336,-0.288 -0.656,-0.752 z m -0.208,-0.8 q 0.496,0 0.896,-0.096 0.4,-0.096 0.688,-0.32 0.288,-0.24 0.432,-0.624 0.16,-0.384 0.16,-0.976 0,-0.992 -0.48,-1.568 -0.48,-0.576 -1.696,-0.576 h -0.48 v 4.16 z" />
        <path
           inkscape:connector-curvature="0"
           id="path4396"
           style="font-style:normal;font-variant:normal;font-weight:bold;font-stretch:normal;font-size:16px;font-family:Athelas;-inkscape-font-specification:'Athelas, Bold';font-variant-ligatures:normal;font-variant-caps:normal;font-variant-numeric:normal;font-feature-settings:normal;text-align:start;letter-spacing:0.51999998px;word-spacing:4.54999971px;writing-mode:lr-tb;text-anchor:start"
           d="m 180.21463,102.70431 q -0.144,0.048 -0.304,0.048 -0.224,0 -0.32,-0.08 -0.096,-0.096 -0.128,-0.192 -0.368,-0.912 -0.96,-1.312 -0.576,-0.4 -1.552,-0.4 -0.768,0 -1.312,0.384 -0.528,0.368 -0.528,1.136 0,0.592 0.4,0.96 0.416,0.352 1.024,0.624 0.624,0.272 1.328,0.528 0.72,0.256 1.328,0.64 0.624,0.384 1.024,0.976 0.416,0.592 0.416,1.52 0,0.608 -0.208,1.184 -0.208,0.576 -0.656,1.024 -0.448,0.432 -1.136,0.704 -0.688,0.256 -1.648,0.256 -1.056,0 -1.888,-0.224 -0.832,-0.24 -1.376,-0.512 -0.048,-0.688 -0.16,-1.344 -0.096,-0.672 -0.224,-1.296 0.16,-0.064 0.368,-0.064 0.192,0 0.288,0.08 0.096,0.064 0.16,0.24 0.208,0.608 0.464,1.056 0.256,0.432 0.592,0.72 0.336,0.272 0.768,0.4 0.448,0.128 1.024,0.128 0.496,0 0.848,-0.128 0.352,-0.144 0.576,-0.368 0.224,-0.224 0.336,-0.528 0.112,-0.304 0.112,-0.624 0,-0.688 -0.4,-1.072 -0.384,-0.4 -0.976,-0.656 -0.576,-0.272 -1.264,-0.496 -0.672,-0.24 -1.264,-0.592 -0.576,-0.368 -0.976,-0.928 -0.384,-0.576 -0.384,-1.536 0,-0.64 0.224,-1.184 0.24,-0.56 0.688,-0.96 0.448,-0.416 1.072,-0.656 0.64,-0.240004 1.456,-0.240004 0.672,0 1.344,0.144004 0.688,0.144 1.552,0.48 0.032,0.48 0.096,1.088 0.08,0.592 0.176,1.072 z" />
      </g>
      <path
         sodipodi:nodetypes="ccccccscsccsccccscccscccccccscsccccscccccscscsccssccccccsccccsccsccccccccscscccsccccccccscsscc"
         inkscape:connector-curvature="0"
         id="path4410"
         d="m 76.602957,96.203026 c -0.08965,-0.108015 -0.58872,-0.444498 -1.109055,-0.747741 l -1.100745,-0.06521 -1.902026,-0.04576 -2.016,-0.032 0.08016,-1.756725 c -0.124752,-1.939899 -0.615519,-3.423818 -0.920044,-3.707527 -0.283988,-0.264575 -1.932324,0.178251 -3.322358,0.351444 -0.790496,0.09849 -1.390053,0.388963 -1.390053,0.918253 0,0.610184 -2.092175,0.641171 -3.40748,0.397669 -0.689884,-0.127719 -0.791769,-0.183835 -0.860985,-0.474225 -0.04318,-0.18115 -0.122318,-0.385735 -0.175864,-0.454632 -0.148032,-0.190471 1.769642,-1.898161 2.465273,-2.19533 0.877846,-0.375008 1.769275,-0.974781 1.856294,-1.248956 0.09179,-0.289196 -0.06063,-0.586157 -0.402063,-0.783379 -0.140035,-0.08089 -0.405156,-0.253601 -0.58916,-0.383808 -0.224825,-0.159094 -0.677977,-0.268044 -1.38161,-0.332177 -1.404635,-0.128026 -2.020283,0.192354 -2.69024,-0.591838 -0.28907,-0.725553 0.151053,-0.822941 0.332791,-1.172492 0.194172,-0.08065 0.831166,-0.154752 1.415541,-0.164686 1.326064,-0.02254 1.46875,0.113885 1.46875,-0.439895 0,-0.2594 0.06349,-0.456671 -0.15625,-0.59054 -0.171875,-0.10471 -0.397565,-0.1556 -0.577923,-0.26587 l -0.452922,-0.387988 -0.0051,-0.713654 0.463654,-0.526153 0.91999,-0.152824 c 0.958185,0.07453 1.203296,0.602054 1.746047,0.27948 0.466838,-0.277458 0.125,-0.279432 0.125,-0.640306 0,-0.396724 0,0 -0.75,-0.794127 -1.656331,-0.741638 -1.394764,-0.828926 -2,-1.568176 -0.702257,-0.857753 -0.593887,-1.914341 0.0625,-2.246996 0.257812,-0.130659 0.695341,-0.275264 0.972287,-0.321346 0.583031,-0.09701 0.687094,-0.01113 1.550465,1.279529 0.566185,0.846398 0.935694,1.101045 1.420956,0.979251 0.56387,-0.141522 -0.09453,-0.623864 -0.331739,-2.313978 -0.115149,-0.820451 -0.198349,-1.822966 -0.299472,-2.113228 -0.21367,-0.613318 -0.268615,-0.911562 -0.09833,-1.359434 0.119891,-0.315338 0.810236,-0.53463 1.34375,-0.343708 0.711285,0.254537 2.112278,1.140881 2.391088,0.91009 0.331175,-0.274138 0.276767,-1.029814 -0.199001,-1.451027 -0.240625,-0.213034 -0.09375,-0.972743 -0.09375,-1.077132 0,-0.190685 0.737189,-0.618501 1.034745,-0.696209 0.08756,-0.02287 0.612437,-0.05408 0.937227,0.427174 0.740823,1.097697 1.000818,1.164264 1.810448,0.463533 0.812783,-0.703458 1.336729,-1.079478 1.948997,-1.10006 l 0.532374,-0.08513 0.277392,1.424535 c -0.327921,0.629132 -0.264828,1.463221 -0.04796,2.120335 0.186876,0.566242 -0.314019,0.739287 0.493878,0.739287 0.564431,0 0.07094,-0.33884 0.664467,-0.845968 0.363513,-0.310595 1.532019,-0.400709 1.83279,-0.544004 0.546568,-0.260396 0.547033,-0.260403 0.875,-0.01201 0.285316,0.216089 0.325826,0.332908 0.310396,0.895083 -0.0098,0.355607 -0.03922,0.668036 -0.06547,0.694287 -0.02625,0.02625 0.511207,0.0132 -0.06606,0.08559 -2.006414,0.251583 -2.609114,0.826396 -2.447624,2.334371 0.07055,0.658782 -0.888361,0.935262 -0.612079,1.152586 0.256858,0.202044 0.434872,0.244519 0.771448,0.184069 0.240646,-0.04322 1.005986,-0.611584 1.357005,-0.651917 0.571339,-0.06565 0.816005,0.11366 1,0.376355 0.275971,0.394004 0.388871,0.980866 -0.03139,1.622633 -0.412145,0.62938 -0.628238,1.065714 -0.429365,1.588791 0.19152,0.503735 -0.136088,0.584425 0.818296,0.384369 0.788283,-0.165237 1.43484,0.181066 1.708206,0.472051 0.2707,0.288147 0.46023,0.528617 0.25641,0.956034 -0.115505,0.242215 0,0 -0.397693,0.757005 -0.577783,0.175801 -0.943549,0.197366 -1.117118,0.533011 -0.174626,0.33769 -0.264799,0.804966 -0.05284,1.429975 l 0.597472,0.476332 c 0.263204,-0.07 0.626305,-0.157285 0.806893,-0.193968 0.180589,-0.03668 0.601432,-0.292367 0.935209,-0.568183 0.750913,-0.620519 0.995208,-0.639647 1.099062,-0.08606 0.04286,0.228486 0.244903,0.678711 0.448975,1.000499 0.287005,0.45256 0.527298,0.654173 1.060976,0.890191 0.379465,0.167817 0.689937,0.32432 0.689937,0.347782 0,0.02346 -0.128249,0.378122 -0.284998,0.788129 -0.24014,0.628136 -0.365027,0.786205 -0.793469,1.004288 -0.805526,0.410022 -1.703773,0.991557 -2.084223,1.349348 -0.26398,0.248257 -0.479847,0.329333 -0.876852,0.329333 -0.292265,0 -0.739618,0.114139 -1.005151,0.256456 -0.43211,0.231596 -0.547039,0.24233 -1.18565,0.110734 -0.944396,-0.19461 -1.210982,-0.349289 -2.013794,-1.168446 -1.306693,-0.419221 -1.066782,0.11911 -2.880863,0.116065 l -1.94367,0.189619 -0.353553,2.85749 0.165941,1.42118 0.787532,0.503184 c 1.221217,-0.06196 1.5023,-0.119362 2.136226,-0.436278 0.714501,-0.357197 0.917139,-0.37469 1.725504,-0.148957 0.113013,0.03156 0.400061,0.435171 0.637883,0.896917 0.556073,1.079649 0.501418,1.343643 -0.344701,1.664981 -0.75716,0.287554 -0.860382,0.291483 -1.068542,0.04066 z"
         style="fill:#000000;stroke-width:0.125" />
    </g>
  </g>
</svg>
