<?xml version="1.0" encoding="UTF-8" standalone="no"?>
<!-- Created with Inkscape (http://www.inkscape.org/) -->

<svg
   xmlns:dc="http://purl.org/dc/elements/1.1/"
   xmlns:cc="http://creativecommons.org/ns#"
   xmlns:rdf="http://www.w3.org/1999/02/22-rdf-syntax-ns#"
   xmlns:svg="http://www.w3.org/2000/svg"
   xmlns="http://www.w3.org/2000/svg"
   xmlns:sodipodi="http://sodipodi.sourceforge.net/DTD/sodipodi-0.dtd"
   xmlns:inkscape="http://www.inkscape.org/namespaces/inkscape"
   version="1.1"
   id="svg80"
   width="724"
   height="739"
   viewBox="0 0 724 739"
   sodipodi:docname="michigan_icon-2.svg"
   inkscape:version="0.92.2 5c3e80d, 2017-08-06">
  <metadata
     id="metadata86">
    <rdf:RDF>
      <cc:Work
         rdf:about="">
        <dc:format>image/svg+xml</dc:format>
        <dc:type
           rdf:resource="http://purl.org/dc/dcmitype/StillImage" />
        <dc:title></dc:title>
      </cc:Work>
    </rdf:RDF>
  </metadata>
  <defs
     id="defs84" />
  <sodipodi:namedview
     pagecolor="#ffffff"
     bordercolor="#666666"
     borderopacity="1"
     objecttolerance="10"
     gridtolerance="10"
     guidetolerance="10"
     inkscape:pageopacity="0"
     inkscape:pageshadow="2"
     inkscape:window-width="1550"
     inkscape:window-height="857"
     id="namedview82"
     showgrid="false"
     inkscape:zoom="0.5"
     inkscape:cx="481.5005"
     inkscape:cy="431.24629"
     inkscape:window-x="2123"
     inkscape:window-y="42"
     inkscape:window-maximized="0"
     inkscape:current-layer="svg80" />
  <path
     id="path344"
     style="fill:#008000;stroke-width:0.5"
     d="m 250.42969,93.300781 c -2.42234,-0.0047 -4.19636,0.304072 -8.29688,1.091797 -6.0386,1.160038 -7.85756,1.769896 -15.25195,5.117188 l -8.39648,3.800784 -3.18946,4.27929 c -1.75411,2.35349 -5.17551,6.20618 -7.60351,8.5625 -4.06741,3.94732 -4.67911,4.35482 -7.78516,5.17969 -3.19282,0.84792 -3.5627,1.10651 -6.96875,4.88477 -3.44844,3.82529 -7.3221,6.78436 -10.7832,8.23437 -1.27072,0.53235 -1.93845,1.37672 -3.08008,3.89453 -0.80179,1.76829 -2.72469,4.80307 -4.27344,6.74414 l -2.8164,3.5293 h -2.52735 c -1.38971,0 -3.79868,0.35883 -5.35351,0.79883 -2.40555,0.68071 -3.45971,1.41861 -7.07618,4.94141 -3.46706,3.37725 -5.7196,4.98402 -12.22265,8.72851 l -7.97071,4.58984 -4.29296,-0.33398 c -4.08783,-0.31979 -4.45241,-0.26317 -7.72071,1.21875 -4.00794,1.81729 -4.61983,1.89002 -5.03125,0.59375 -0.26195,-0.82534 -0.87834,-0.98577 -4.3164,-1.125 l -4.00977,-0.16211 -4.59375,2.61914 c -3.44293,1.96373 -6.37182,4.28678 -11.695312,9.27734 l -7.101562,6.65821 -9.714844,3.65234 c -8.412211,3.1615 -9.985714,3.6034 -11.742188,3.30664 -1.852584,-0.31299 -2.269477,-0.15923 -4.808593,1.75781 -2.943122,2.22211 -3.166455,2.6757 -2.044922,4.15626 0.678137,0.89519 0.785542,0.89748 3.013672,0.0469 l 2.310547,-0.88281 2.595703,2.54687 c 1.921203,1.88484 3.03789,2.58663 4.300781,2.70313 l 1.707031,0.1582 3.990235,9.75 c 2.194551,5.3625 4.047307,9.81995 4.117187,9.90625 0.06988,0.0863 6.393148,1.8105 14.052734,3.83203 7.659581,2.02154 25.965231,6.85417 40.677731,10.73828 l 26.75,7.0625 10.51172,6.98047 c 8.603,5.71319 10.83547,6.98047 12.29883,6.98047 0.98341,0 3.49908,0.14355 5.58984,0.32031 3.56581,0.30142 3.83007,0.40591 4.27539,1.6836 0.30395,0.87179 0.97039,1.48782 1.85157,1.70898 1.33741,0.33567 1.527,0.22153 2.61914,-1.56641 0.20244,-0.33138 1.98545,-0.79507 3.96289,-1.03124 3.50506,-0.41862 3.62994,-0.39518 4.99219,0.9375 0.76854,0.75182 2.52343,1.69152 3.89843,2.08789 2.13888,0.6166 2.78454,0.62084 4.47266,0.0312 1.97203,-0.68812 1.97425,-0.68735 4,1.27148 2.02414,1.95729 2.0344,1.96024 7.27734,2.32031 4.92462,0.3382 5.47379,0.48933 8.86914,2.42383 3.05616,1.74125 3.62,2.26757 3.625,3.38477 0.004,0.8915 0.59793,1.84494 1.82227,2.91992 l 1.81641,1.5957 -3.03711,3.08008 -3.03711,3.08203 1.19336,1.37305 1.19531,1.37109 3.80469,-0.5918 3.80273,-0.58984 1.84766,2.01367 c 1.56613,1.70901 2.25237,2.06922 4.51367,2.36719 2.15679,0.28421 3.02361,0.70502 4.53516,2.20312 1.02789,1.01874 2.64104,2.54048 3.58398,3.38086 2.14361,1.91047 3.48982,4.29352 2.5957,4.59375 -0.34007,0.11419 -1.11977,0.61329 -1.73242,1.10938 l -1.11328,0.90234 1.88867,3.0586 1.88672,3.05859 -1.35937,2.5 c -0.74822,1.37473 -1.66246,2.5 -2.03125,2.5 -0.92805,0 -0.88101,0.2149 0.91406,4.10938 l 1.58594,3.4414 -3.1543,3.18164 c -2.50776,2.53026 -3.09432,3.41139 -2.86328,4.29492 0.15987,0.61132 -0.12047,2.19489 -0.62305,3.51758 -0.88619,2.33307 -0.88921,2.42839 0.008,3.23828 0.72114,0.65261 1.62902,0.7902 4.16211,0.62891 2.94139,-0.1873 3.47218,-0.39943 5.73633,-2.30859 1.37183,-1.15675 2.67863,-2.10257 2.9043,-2.10157 0.84059,0.004 5.25989,6.01319 4.97265,6.76172 -0.15943,0.41548 -1.15902,2.04532 -2.22265,3.6211 -1.06363,1.57577 -2.77563,5.04781 -3.80469,7.71679 l -1.87109,4.85352 3.06836,3.64648 c 1.68752,2.00602 3.90057,4.15414 4.91796,4.77149 v -0.002 c 1.01739,0.61734 2.01836,1.124 2.22461,1.125 0.20625,10e-4 0.375,-1.00079 0.375,-2.22851 0,-2.03505 0.86014,-3.60498 9.7461,-17.77539 5.36079,-8.54882 9.89537,-16.13315 10.07617,-16.85352 0.1808,-0.72037 2.65167,-6.05277 5.49023,-11.84961 l 5.16016,-10.53906 5.2168,-4.375 c 6.21011,-5.20829 6.81054,-6.41235 6.81054,-13.65234 v -4.59766 l 2.8125,-4.82812 c 1.54656,-2.65548 3.17781,-5.0158 3.625,-5.24414 1.0204,-0.52106 5.5625,-1.13338 5.5625,-0.75 0,0.15624 -1.35836,2.44964 -3.01757,5.0957 -1.65921,2.64606 -3.15867,5.37564 -3.33204,6.0664 -0.31734,1.2644 1.67699,14.50064 2.27735,15.11524 0.17719,0.18139 2.00976,-0.62481 4.07226,-1.79102 3.32349,-1.87922 4.04797,-2.57097 6.37305,-6.08008 2.4429,-3.68691 2.623,-4.16896 2.625,-7.0039 10e-4,-2.5472 0.22655,-3.34114 1.37695,-4.85742 0.75625,-0.99676 1.4875,-1.81816 1.625,-1.82618 0.1375,-0.008 0.77684,0.75978 1.42188,1.70704 0.83289,1.22311 1.89654,1.9637 3.66992,2.55273 1.38187,0.45901 2.67872,0.63645 2.9043,0.39844 0.22419,-0.23656 1.76117,-2.05989 3.41406,-4.05078 l 3.00586,-3.61914 1.95703,2.36914 c 1.0765,1.30339 2.11362,2.64288 2.30664,2.97461 0.19302,0.33172 -0.65872,2.61554 -1.89453,5.07617 -1.89561,3.77438 -2.57803,4.65688 -4.35938,5.64648 -1.62761,0.90421 -2.53611,1.96193 -3.96874,4.61524 -1.02216,1.89311 -2.49993,3.96072 -3.28321,4.59375 l -1.42383,1.15039 1.48243,2.78125 c 1.31916,2.47558 1.6558,2.7832 3.06054,2.7832 1.45846,0 1.60306,-0.15373 1.90235,-2.02539 0.22859,-1.42947 1.35292,-3.39443 3.8164,-6.67187 3.43679,-4.57234 3.53449,-4.65463 6.36328,-5.28126 3.75833,-0.83253 4.36548,-1.18718 5.11719,-3.00195 0.56003,-1.35204 0.86038,-1.51953 2.73438,-1.51953 h 2.10547 l 1.3789,-6.00976 c 1.32759,-5.78657 1.47418,-6.11469 3.95899,-8.875 3.27938,-3.64297 2.9486,-3.44357 6.34765,-3.82813 1.59277,-0.1802 4.48851,-0.76763 6.4336,-1.30664 1.94508,-0.53901 4.00894,-0.98047 4.58593,-0.98047 0.57699,0 3.23918,1.125 5.91602,2.5 2.67685,1.375 5.01988,2.5 5.20703,2.5 0.18715,0 0.33984,-0.55865 0.33984,-1.24219 0,-1.02225 0.5546,-1.52546 3.125,-2.82812 l 3.125,-1.58399 4.40235,1.14454 c 4.31804,1.12137 4.46376,1.12548 7.58984,0.27929 l 3.1875,-0.86133 5.57227,-6.70507 c 3.09243,-3.72054 5.94504,-6.70292 6.41015,-6.70313 0.46094,-2.1e-4 2.70961,0.36997 4.99805,0.82422 3.86664,0.76746 4.28319,0.76794 5.89062,0.002 1.72835,-0.82418 1.74168,-0.82078 15,3.53907 l 13.26758,4.36328 3.66797,4.28711 c 3.5072,4.10077 9.81416,10.11445 14.88867,14.19531 2.22505,1.78936 2.47024,1.87094 3.875,1.28906 0.82481,-0.34164 1.5,-0.70133 1.5,-0.79883 0,-0.0975 -0.44907,-0.91405 -0.99804,-1.81445 -0.79391,-1.30213 -0.998,-2.52231 -1,-5.96289 l -0.002,-4.32617 1.75,-1.03125 c 1.76362,-1.04054 2.02627,-1.73745 1.78711,-4.73438 -0.12177,-1.52588 2.06138,-5.33203 3.0586,-5.33203 0.32034,0 2.10835,0.49136 3.97265,1.0918 3.37018,1.08544 3.39552,1.10765 4.49414,3.875 1.38065,3.47777 1.37811,3.4743 2.19336,2.35937 0.64228,-0.87836 0.78867,-0.8437 3.08399,0.72071 1.32539,0.90334 3.84961,2.72383 5.60937,4.04687 1.75976,1.32304 3.40587,2.40625 3.65821,2.40625 0.25234,0 1.23957,-0.59478 2.19335,-1.32226 1.32565,-1.01111 3.34977,-1.65393 8.5918,-2.72852 8.49649,-1.74174 9.06633,-1.74929 13.64453,-0.16406 3.49075,1.20867 3.91289,1.24836 7.05274,0.67578 4.5126,-0.82291 4.59946,-0.8975 3.94336,-3.33399 -0.51165,-1.90018 -0.67314,-2.03533 -2.83399,-2.35937 -1.9451,-0.29168 -2.96639,-0.94702 -6.74609,-4.33594 -2.4496,-2.19635 -4.45313,-4.06971 -4.45313,-4.16211 0,-0.0924 0.55995,-1.14693 1.24414,-2.34375 1.48342,-2.59491 1.52611,-2.92564 0.38086,-2.93164 -0.48125,-0.003 -2.31948,-0.91974 -4.08398,-2.03906 l -3.20703,-2.03516 -3.14453,0.78906 c -1.72952,0.43444 -3.24134,0.79102 -3.35938,0.79102 -0.11805,0 -0.374,-1.27251 -0.56836,-2.82812 -0.19436,-1.55561 -0.45426,-3.09323 -0.57812,-3.41602 -0.12387,-0.32279 1.06156,-1.44179 2.63476,-2.48633 2.35805,-1.56566 3.02079,-1.7993 3.77149,-1.33398 0.50084,0.31045 1.35849,0.84189 1.90625,1.18164 0.85709,0.53161 1.17824,0.43504 2.30664,-0.69336 l 1.31054,-1.31055 -1.07031,-2.86133 c -0.89887,-2.40245 -0.97823,-3.11394 -0.49609,-4.44726 0.54605,-1.51008 0.39882,-1.86127 -3.02149,-7.22852 -3.95613,-6.20809 -3.90249,-5.58198 -0.75,-9.07617 0.86838,-0.9625 1.95581,-2.72979 2.41797,-3.92773 1.09496,-2.83816 0.52728,-3.57227 -2.76172,-3.57227 -2.06651,0 -2.97229,0.35042 -5.86132,2.27148 l -3.41797,2.27344 -2.50196,-0.98633 -2.50195,-0.98632 -3.69922,2.45898 c -2.27672,1.51291 -3.80493,2.8925 -3.97265,3.58789 -0.20534,0.85133 -0.64931,1.14199 -1.80079,1.17969 -0.84059,0.0275 -2.51705,0.72424 -3.72656,1.54687 -2.1432,1.45769 -4.95429,2.6543 -6.23437,2.6543 -0.49226,0 -0.46482,-0.43509 0.12304,-1.93164 0.75516,-1.92244 0.75153,-1.94161 -1.08789,-4.50195 -2.51703,-3.50351 -3.59815,-3.6876 -6.88281,-1.17383 -2.08747,1.59755 -3.42844,2.16903 -6.61719,2.82226 l -4,0.82032 -1.42382,-1.76758 c -1.20577,-1.49722 -1.73312,-1.76758 -3.44532,-1.76758 -1.34216,0 -2.23465,-0.29257 -2.65625,-0.86914 -0.59679,-0.81617 -0.69173,-0.81637 -1.57031,-0.0215 -0.85236,0.77137 -1.15442,0.78036 -3.44336,0.10937 -2.30772,-0.67649 -2.62016,-0.95759 -3.86133,-3.48828 -1.62675,-3.31688 -1.6304,-3.39243 -0.27148,-5.23047 0.92436,-1.25026 1.17547,-2.68407 1.75976,-10.04102 0.66623,-8.38865 0.72385,-8.65761 2.50782,-11.84765 l 1.82422,-3.26367 -1.46094,0.3789 c -2.90662,0.75301 -8.0668,1.23986 -13.30274,1.25586 l -5.3457,0.0176 -10.4043,4.90039 -10.40625,4.90039 -5.5,-0.31836 c -3.025,-0.1743 -7.975,-0.0989 -11,0.16602 -5.18107,0.45368 -5.7331,0.40932 -9.50976,-0.75781 l -4.00977,-1.23829 -3.71289,1.6875 c -3.05071,1.38733 -3.78214,1.56129 -4.10937,0.97657 -0.32962,-0.589 -1.17582,-0.41846 -4.90821,0.98633 -2.48018,0.9334 -4.79257,1.69726 -5.13867,1.69726 -0.3461,0 -1.45484,-0.56111 -2.46289,-1.24609 l -1.83203,-1.2461 -9.94922,6.47657 c -6.85906,4.46468 -10.5655,6.57419 -11.93359,6.79296 -1.8114,0.28965 -2.63251,1.05669 -9.42383,8.7793 -7.7113,8.76873 -8.23625,9.1098 -8.25195,5.3711 l -0.008,-1.82227 -1.875,0.43555 c -1.03125,0.23948 -2.01236,0.44026 -2.17968,0.44726 -0.16731,0.007 -1.12662,-1.22578 -2.13086,-2.73828 -1.00425,-1.5125 -1.99188,-2.74619 -2.19532,-2.74219 -0.94598,0.0196 -1.52351,0.94598 -2.09765,3.36719 l -0.6211,2.625 h -3.15234 c -3.0581,0 -3.17883,-0.0516 -4.16016,-1.71484 -0.83575,-1.41648 -1.39711,-1.77108 -3.23632,-2.04688 l -2.22657,-0.33398 0.40625,-1.79492 c 0.4481,-1.98681 -0.41238,-3.65637 -2.88281,-5.59961 -1.29681,-1.02003 -1.32422,-1.01929 -2.35547,-0.0684 -0.57408,0.52961 -1.94297,1.33366 -3.04297,1.78711 -1.1,0.45344 -2.6013,1.39986 -3.33593,2.10351 -1.26383,1.21052 -1.39767,1.23519 -2.48633,0.47266 -1.45702,-1.02049 -2.42774,-1.02809 -2.42774,-0.0215 0,0.68876 -0.79625,0.73892 -6.625,0.42969 l -6.625,-0.34961 -2.875,-2.0039 c -2.97531,-2.07373 -3.38782,-2.81124 -2.14843,-3.83985 0.39963,-0.33166 0.69891,-1.20424 0.66601,-1.9375 -0.0329,-0.73326 0.11539,-1.73045 0.33008,-2.21679 0.34569,-0.78318 0.23712,-0.82608 -0.94922,-0.375 -0.73679,0.28012 -1.41302,0.50976 -1.5039,0.50976 -0.0909,0 -0.89342,-1.13486 -1.78321,-2.52148 -0.88979,-1.38661 -2.27094,-2.85913 -3.06836,-3.27149 -0.97181,-0.50254 -1.85978,-1.67565 -2.69336,-3.56055 -0.684,-1.5466 -2.25191,-3.89139 -3.48437,-5.20898 -1.87737,-2.00707 -2.24024,-2.71849 -2.24024,-4.38476 0,-2.49273 -0.7598,-4.55274 -1.67773,-4.55274 -0.38595,0 -0.98054,-0.675 -1.32227,-1.5 -0.51698,-1.2481 -0.9049,-1.5 -2.31054,-1.5 -1.27582,0 -1.68996,-0.21419 -1.68946,-0.875 5.9e-4,-0.74813 -0.39819,-0.84956 -2.75,-0.70312 l -2.75,0.16992 v -2.19141 c 0,-2.13788 -0.0699,-2.22938 -2.82617,-3.8125 l -2.82422,-1.62305 -1.14843,1.08008 -1.14844,1.07813 -2.46875,-1.81055 c -2.37028,-1.73997 -2.63597,-1.81236 -6.65235,-1.81836 -2.30065,-0.003 -5.30664,-0.29927 -6.68164,-0.65625 -2.99691,-0.77806 -5.41554,-0.41663 -9.33398,1.39063 -2.22705,1.02716 -3.44607,2.07759 -5.70313,4.91406 -3.87036,4.86392 -3.63109,4.64039 -4.27343,3.99805 -0.41297,-0.41297 -0.16619,-1.2601 0.94336,-3.22657 0.82711,-1.46589 1.67166,-3.22656 1.87695,-3.91406 0.2053,-0.6875 1.26498,-2.31875 2.35351,-3.625 1.08861,-1.30625 1.76054,-2.375 1.49415,-2.375 -0.2664,0 -3.014,2.025 -6.10743,4.5 -3.09343,2.475 -5.83478,4.5 -6.09179,4.5 -0.25701,0 -0.31854,0.24367 -0.13477,0.54102 0.18377,0.29734 -0.21844,1.14109 -0.89453,1.875 -0.67608,0.7339 -2.2698,3.2714 -3.54297,5.64062 -2.50331,4.65835 -2.19021,4.47634 -6.24023,3.64649 l -1.1543,-0.23633 1.52734,-1.92774 c 1.46336,-1.84765 1.50446,-2.03498 1.02735,-4.55078 -0.75444,-3.97816 -0.62997,-5.47026 1.07617,-13 1.51788,-6.69888 1.62195,-6.95248 2.97656,-7.25 1.08165,-0.23757 1.8266,-1.06367 3.24805,-3.60547 1.01446,-1.81402 1.95443,-4.28107 2.08984,-5.48242 0.21232,-1.88376 0.54479,-2.39947 2.41992,-3.74609 1.19585,-0.85879 2.26994,-1.91931 2.38672,-2.35742 0.11678,-0.4381 0.35585,-1.44007 0.53125,-2.22461 0.29288,-1.31003 0.45734,-1.39915 2.00196,-1.10938 l 1.68164,0.31445 -0.26367,-1.96289 c -0.21916,-1.63369 0.003,-2.34902 1.32031,-4.26367 1.32131,-1.92047 1.8473,-2.30259 3.18359,-2.30859 2.04939,-0.01 2.08043,-0.0352 5.4336,-4.54102 2.79239,-3.75245 2.8947,-3.83007 8.33398,-6.23242 4.27812,-1.8895 5.55366,-2.67782 5.7168,-3.53125 0.15181,-0.79414 -0.12592,-1.2523 -1.00391,-1.65234 -1.10273,-0.50243 -1.18248,-0.7485 -0.86133,-2.66992 0.19454,-1.16402 0.60789,-2.28039 0.91797,-2.48243 0.31007,-0.20204 2.45063,-0.371 4.75781,-0.375 3.39869,-0.006 4.31582,0.15563 4.82618,0.85352 0.55133,0.754 0.78618,0.77663 1.89062,0.18555 0.72735,-0.38926 1.80799,-0.538 2.55078,-0.35157 0.70869,0.17783 1.28906,0.1374 1.28906,-0.0898 0,-0.22768 0.29622,-0.8226 0.66016,-1.32031 0.57343,-0.78422 0.80512,-0.81495 1.72852,-0.23828 1.47999,0.92427 1.69891,0.47453 0.97851,-2.013676 -0.58937,-2.035622 -0.78759,-2.20718 -3.86914,-3.326172 -2.36917,-0.860309 -5.18192,-1.323601 -10.39258,-1.714844 -2.56316,-0.192455 -4.24972,-0.307756 -5.70312,-0.310547 z" />
  <path
     id="path346"
     style="fill:#008000;stroke-width:0.5"
     d="m 214.33008,9.4453125 c -0.0807,9.983e-4 -0.17116,0.0143 -0.27344,0.044922 -3.26481,-0.2242932 -5.25928,3.1982916 -8.52734,2.8183596 -3.00718,-0.446327 -5.91835,0.593861 -7.80469,2.988281 -1.25843,1.761318 -2.84433,3.270646 -5.03711,3.666016 -2.38304,1.677534 -4.07917,4.493818 -7.08008,5.447265 -11.38463,5.708853 -22.57236,11.967969 -33.18164,19 -0.5656,0.558316 -0.9234,1.856954 0.17383,0.935547 0.70549,-0.631329 3.81746,-2.186418 3.24609,-0.03516 -0.55503,1.542212 -2.40049,2.499753 -2.83203,3.958984 2.06511,0.177927 1.88643,3.514565 4.03711,3.085938 6.22983,-1.959804 12.83106,-4.300105 18.55469,-6.845703 -2.08992,-0.144366 -4.40251,0.646093 -6.3457,0.228515 -0.78635,-3.691134 1.94295,-5.011519 4.9707,-6.021484 9.06999,-4.474051 19.01907,-7.426992 26.9375,-13.917969 0.96337,-0.515353 1.25745,-1.311218 -0.0801,-1.193359 -0.75463,-0.141903 -4.12537,0.349083 -3.24414,-1.263672 4.7325,-2.10365 9.98259,-3.889605 13.52734,-7.927735 0.30899,-1.920726 2.24251,-2.517892 3.32032,-3.839843 0.25594,-0.478746 0.20368,-1.1358944 -0.36133,-1.1289065 z" />
  <path
     style="fill:#008000;stroke-width:0.04419417"
     d="m 352.20759,198.93033 c -0.50722,0.55914 -1.02195,1.09816 -1.48085,1.69734 0.12278,1.00622 0.22238,2.02238 0.38377,3.01979 0.55607,0.60221 1.23701,1.08389 1.81486,1.65881 0.13622,0.41088 0.0889,0.87261 0.14912,1.30312 0.13979,1.83637 0.26406,3.67747 0.4112,5.51006 0.20115,-0.026 0.40219,-0.14286 0.60551,-0.0931 0.0144,-0.33063 -0.10526,-0.68272 0.007,-0.9986 0.9436,-0.45018 1.93764,-0.80222 2.89291,-1.23398 0.18271,-0.0635 0.36526,-0.13385 0.40313,-0.34425 0.22449,-0.50442 0.42812,-1.01455 0.64121,-1.52399 -0.0969,-0.0673 -0.25219,-0.54634 -0.31229,-0.33802 -0.10732,0.23972 -0.0885,0.5697 -0.31506,0.73205 -0.42893,-0.009 -0.83743,-0.21838 -1.25436,-0.31669 -0.5584,-0.18308 -1.13302,-0.32909 -1.67385,-0.55916 -0.21577,-0.23 0.0712,-0.53177 0.11492,-0.78332 0.4368,-1.18133 0.88828,-2.35714 1.33339,-3.53537 -0.46816,-1.30827 -0.91763,-2.62638 -1.40196,-3.92404 -0.7269,-0.16649 -1.45904,-0.27322 -2.19391,-0.40578 -0.0417,0.0451 -0.0833,0.0901 -0.12499,0.13517 z"
     id="path356"
     inkscape:connector-curvature="0" />
  <path
     id="path358"
     style="fill:#008000;stroke-width:0.5"
     d="m 589.13281,250.83594 c -1.34348,0.0438 -3.04329,1.04448 -1.65429,2.32422 2.27626,1.58733 -1.17553,3.50031 -2.19922,4.41796 -1.12759,-0.32429 -4.17539,-3.28277 -3.56446,-0.87304 0.15647,1.72982 3.61784,2.92505 0.98243,4.20508 -1.30337,0.72096 -2.53089,3.04739 -4.10743,2.79492 -0.99692,-0.93009 -0.77252,-3.40964 -1.97656,-3.72461 -1.6031,1.95932 -3.14381,5.88775 -0.15234,7.38672 2.54821,2.92499 6.66464,0.48449 10.01562,0.66211 2.69024,0.18018 6.41246,-2.13446 7.86133,1.1914 2.02813,3.14799 6.86638,1.56227 8.21289,-1.42773 0.95716,-1.21101 3.29973,-4.28262 0.45899,-4.78125 -1.83889,-0.63325 -5.06577,0.15453 -4.34571,-2.8711 0.0534,-4.45679 -2.99758,-9.4549 -7.93164,-9.26757 -0.35159,-0.0196 -0.70314,-0.003 -1.05469,0.004 -0.16728,-0.0348 -0.35299,-0.0473 -0.54492,-0.041 z" />
  <path
     id="path360"
     style="fill:#008000;stroke-width:0.03125"
     d="m 354.67188,310.36523 c -0.0638,0.0186 -0.12756,0.0365 -0.19141,0.0547 -0.004,0.007 -0.008,0.0142 -0.0117,0.0215 10e-4,0.006 0.008,0.0116 0.01,0.0176 0.0656,-0.0178 0.12749,-0.0333 0.18945,-0.0488 8.7e-4,-0.0149 0.003,-0.0303 0.004,-0.0449 z" />
  <path
     id="path370"
     style="fill:#008000"
     d="m 505.11328,287.82031 -0.35547,0.0156 c -2.52601,0.23811 -1.85463,5.2386 -5.15429,3.33398 -3.15566,-0.11383 -8.08424,-0.92114 -10.14258,1.7207 -0.51479,4.79319 -5.1555,8.58553 -8.67383,11.59961 -4.28924,1.68569 -5.2906,8.15658 -4.10742,12.20118 1.56356,5.0598 5.28858,10.66142 11.36328,9.63281 3.34623,-1.15726 5.18867,2.06238 3.32617,4.69336 -5.15196,4.78294 -13.38249,2.10518 -19.72266,3.4375 -4.79495,1.2327 -7.03824,6.73889 -11.95117,8.13281 -5.43206,5.15725 -2.86996,14.03997 -3.82812,20.77539 -0.96071,8.40692 2.25854,17.96499 -3.78321,24.97461 -3.27585,4.61071 -4.87518,10.28664 -7.6914,14.95313 -2.45922,1.39251 -5.27945,-0.13363 -5.99219,-2.63672 -1.9885,-0.459 -5.55298,0.91288 -4.61523,-2.76368 -0.7238,-5.01796 -1.71682,-11.67904 2.15625,-15.53515 1.54297,-1.34051 1.11668,-5.15715 -1.49414,-3.9082 -3.50345,-1.97711 1.02139,-6.73521 2.40429,-8.84961 1.45228,-1.0475 2.95802,-1.68846 1.22852,-3.64063 -0.69574,-1.60806 -3.69874,-6.52165 -4.72656,-2.36328 -3.40659,4.87242 -8.76516,8.54353 -9.99219,14.73242 -2.10615,5.37752 -8.22079,3.89842 -11.79688,1.57813 -0.84396,4.75238 -5.20452,7.60099 -9.9414,6.34765 -1.09226,6.14026 1.29428,13.69465 -2.37305,19.10938 -3.09097,1.50213 -6.96164,0.40237 -9.76953,3.10351 -3.95675,1.12298 -3.72832,4.91612 -2.04492,7.875 3.46595,8.63394 -0.37249,18.05044 -1.20508,26.86719 -3.20235,11.5022 -8.9214,22.4249 -15.85547,32.11133 -5.48348,2.69923 -3.67853,7.04631 -1.55664,11.66016 2.78264,8.84426 6.75216,19.12639 0.8418,27.65625 -3.27626,4.7385 -6.77205,10.47208 -3.99805,16.35546 5.09228,10.74063 5.97595,23.35953 12.60742,33.30274 3.07401,2.0806 9.51445,-3.12543 10.31445,2.92773 -0.27154,3.0074 -3.77571,4.07918 -6.26562,4.47852 6.01605,14.77803 8.4675,30.66928 7.82422,46.58008 0.92543,24.56016 -5.62076,49.73958 -20.49219,69.49804 -4.38184,6.30569 -5.89879,13.82454 -8.38477,20.85938 -4.07355,6.0961 -10.71169,10.63064 -14.9121,16.20898 51.55901,0.96225 103.3489,-0.23775 154.77539,0.20703 -0.29868,2.69177 -0.60747,7.5515 3.55468,6.25977 33.75582,-1.18774 67.67528,-2.28554 101.29102,-4.58203 1.57013,-2.86932 -0.71892,-8.06787 3.44336,-8.91211 1.27508,-3.9437 6.28509,-5.39385 6.64844,-9.70898 1.91847,-2.44615 5.78339,-2.64421 6.99414,-5.80274 8.33906,-4.60699 10.29408,-15.19392 8.96875,-23.93555 -0.80509,-6.87066 4.25025,-13.22128 10.99218,-14.46093 3.97063,-0.76804 5.70759,-4.12373 7.22266,-7.39454 1.63556,-5.40327 -1.23124,-13.93373 4.98438,-16.98242 1.8125,0.22398 5.01409,-0.95465 2.33398,-2.56445 -1.23048,-2.49342 -1.94041,-8.29059 2.35156,-7.74023 3.38068,-1.16891 6.81484,-4.27907 10.3418,-1.26172 4.15298,2.06512 -0.62091,5.66584 -2.52539,7.32226 -0.23134,1.73483 1.62166,3.37821 0.83984,5.28711 6.89908,2.36796 11.07235,-6.23973 12.39453,-11.74219 3.19792,-9.02414 0.81398,-19.00412 3.74219,-27.99023 3.75716,-3.53624 3.4059,-9.01523 0.48438,-12.88477 -7.81344,-12.74584 -4.13936,-28.56768 -7.76172,-42.51757 -2.67628,-10.32814 -5.4413,-20.7272 -4.85547,-31.51563 -1.24759,-10.24697 -5.26674,-20.45339 -11.35547,-28.74805 -2.87647,-4.05797 -8.33789,-3.19842 -11.64453,-6.74023 -6.56157,-2.42374 -9.71753,6.8786 -15.61914,7.93359 -4.53028,1.26638 -12.18482,-0.5929 -13.64649,5.56446 -0.49514,3.03141 -5.07305,2.20973 -4.21093,5.69922 -0.94536,3.43345 -4.60082,5.26912 -5.64649,8.89257 -2.85449,4.19859 -4.12462,10.28307 -8.25781,13.27149 -0.65705,-1.11572 -0.49854,-3.24671 -2.2168,-1.12305 -4.24358,3.57337 -6.14042,10.94071 -12.02148,12.0625 -2.15127,-2.07501 -4.35415,-4.49967 -7.51172,-5.5039 -3.46312,-1.96961 -8.05429,-1.11446 -10.35547,-5.10938 -2.29241,-2.83236 -5.59619,-7.34582 -1.78516,-10.41992 2.96209,-6.26049 -0.46272,-14.5638 5.01368,-20.09375 2.67035,-6.28555 10.69918,-2.54469 15.14257,-5.39844 0.62366,-2.70303 1.93341,-5.41393 5.11524,-5.60547 3.41122,-1.55391 4.62733,-5.48985 3.4707,-8.80469 0.32442,-6.19599 1.3362,-15.59483 9.25391,-16.13671 3.94824,-0.67098 7.36676,-5.09387 9.16601,-8.1211 0.64377,-13.00083 0.53551,-26.26354 4.19141,-38.83984 -1.72167,-4.477 -3.56744,-9.13225 -2.9668,-14.14844 0.12684,-5.97763 -8.84936,-5.62021 -9.50781,-11.53906 -2.37003,-5.22288 -3.32199,-13.41135 3.34375,-15.89453 1.96426,-1.92278 6.70523,3.43872 6.02539,-0.46289 -1.85128,-6.85709 -7.76017,-12.64503 -8.26367,-19.70704 2.9338,-2.49004 -2.74717,-5.25912 -4.08203,-7.23632 -3.76652,-3.28276 -9.61279,-1.0324 -13.31055,-4.81446 -3.17775,-3.12138 -7.45776,-3.39167 -11.57422,-3.53711 -6.06511,-2.69491 -9.45233,-11.15969 -17.18554,-9.61328 -6.9255,2.33925 -8.72972,-4.74263 -11.95313,-9.18359 -4.10673,-8.43042 -14.00718,-9.65446 -22.29492,-10.32227 -8.31444,-2.65797 -14.69398,-9.53878 -22.77344,-12.42578 z" />
  <path
     style="fill:#008000;stroke-width:0.125"
     d="m 446.80038,375.36046 c -0.50472,0.17656 -1.16223,0.18803 -1.11584,0.89573 -0.23671,0.65076 -0.27981,1.41247 -0.64588,1.99612 -0.3815,0.12006 -0.88706,-0.36504 -1.15185,-0.22534 -0.28337,2.07647 -0.44638,4.17637 -0.74658,6.24487 -0.54651,0.72906 -1.09299,1.45814 -1.63941,2.18726 0.50054,0.48382 1.1292,0.96117 0.83266,1.74689 -0.0442,1.13931 -0.0777,2.28386 -0.68347,3.28959 -1.21866,2.92644 -2.56457,5.90413 -3.70241,8.80019 0.49486,0.0217 0.84757,0.42355 0.98511,0.88159 0.65085,-2.31106 1.01032,-4.72808 1.68652,-7.03565 1.16212,-1.2057 2.6597,-2.08755 3.83562,-3.23823 0.47083,-1.4287 1.17163,-2.81598 1.49763,-4.2708 0.0362,-2.45569 -0.0719,-4.94366 0.0533,-7.37942 0.53394,-0.34279 1.42142,-0.21072 1.88688,-0.68064 0.15465,-0.63909 0.65799,-1.46938 0.051,-2.0057 -0.35342,-0.41316 -0.70579,-0.9101 -1.14329,-1.20646 z"
     id="path382"
     inkscape:connector-curvature="0" />
</svg>
