<?xml version="1.0" encoding="UTF-8" standalone="no"?>
<!-- Created with Inkscape (http://www.inkscape.org/) -->

<svg
   xmlns:dc="http://purl.org/dc/elements/1.1/"
   xmlns:cc="http://creativecommons.org/ns#"
   xmlns:rdf="http://www.w3.org/1999/02/22-rdf-syntax-ns#"
   xmlns:svg="http://www.w3.org/2000/svg"
   xmlns="http://www.w3.org/2000/svg"
   xmlns:sodipodi="http://sodipodi.sourceforge.net/DTD/sodipodi-0.dtd"
   xmlns:inkscape="http://www.inkscape.org/namespaces/inkscape"
   version="1.1"
   id="svg96"
   width="460.79999"
   height="257.28"
   viewBox="0 0 460.79999 257.28"
   sodipodi:docname="green_tag_certification_logo.svg"
   inkscape:version="0.92.2 5c3e80d, 2017-08-06">
  <metadata
     id="metadata102">
    <rdf:RDF>
      <cc:Work
         rdf:about="">
        <dc:format>image/svg+xml</dc:format>
        <dc:type
           rdf:resource="http://purl.org/dc/dcmitype/StillImage" />
        <dc:title></dc:title>
      </cc:Work>
    </rdf:RDF>
  </metadata>
  <defs
     id="defs100" />
  <sodipodi:namedview
     pagecolor="#ffffff"
     bordercolor="#666666"
     borderopacity="1"
     objecttolerance="10"
     gridtolerance="10"
     guidetolerance="10"
     inkscape:pageopacity="0"
     inkscape:pageshadow="2"
     inkscape:window-width="1580"
     inkscape:window-height="883"
     id="namedview98"
     showgrid="false"
     inkscape:snap-bbox="true"
     inkscape:snap-intersection-paths="true"
     inkscape:snap-smooth-nodes="true"
     inkscape:snap-midpoints="true"
     inkscape:zoom="1.0911124"
     inkscape:cx="407.72583"
     inkscape:cy="207.51474"
     inkscape:window-x="2133"
     inkscape:window-y="84"
     inkscape:window-maximized="0"
     inkscape:current-layer="svg96" />
  <g
     id="g4746">
    <path
       sodipodi:nodetypes="cccc"
       inkscape:connector-curvature="0"
       id="path106"
       d="m 285,13.279999 c 0,0 -57.70903,23.353617 -60.00026,86.591833 H 191 c 0,0 6.93288,-80.863735 94,-86.591833 z"
       style="fill:#3b683d;fill-opacity:1;stroke:none;stroke-width:1px;stroke-linecap:butt;stroke-linejoin:miter;stroke-opacity:1" />
    <path
       sodipodi:nodetypes="ccsscscc"
       inkscape:connector-curvature="0"
       id="path124"
       d="m 229.89473,99.709817 3.12448,0.205635 c 0,0 18.2474,-32.904202 49.38423,-46.068054 17.69858,-7.482504 39.07133,-12.781068 62.83182,-6.573443 23.76048,6.207626 52.75308,16.281727 73.60336,58.325975 C 420.21833,62.089982 389.25628,33.707038 364.39348,20.617955 331.79957,3.4588011 289.84265,14.303649 271.18382,27.59083 233.32267,53.685264 229.89473,99.709817 229.89473,99.709817 Z"
       style="fill:#53924b;fill-opacity:1;stroke:none;stroke-width:1px;stroke-linecap:butt;stroke-linejoin:miter;stroke-opacity:1" />
    <path
       sodipodi:nodetypes="cscsssc"
       inkscape:connector-curvature="0"
       id="path130"
       d="m 328.24262,52.492896 c 0,0 38.46876,13.723831 54.33641,56.610384 14.71394,39.76832 9.1342,100.67849 -54.05169,133.08152 38.95451,-0.22238 76.427,-28.70643 87.24351,-58.56245 5.78667,-15.97254 7.59868,-27.58822 6.94103,-41.74808 -0.65765,-14.15987 -7.07477,-35.02805 -12.73732,-43.727992 -32.3813,-49.750633 -81.73194,-45.653382 -81.73194,-45.653382 z"
       style="fill:#87bc6d;fill-opacity:1;stroke:none;stroke-width:1px;stroke-linecap:butt;stroke-linejoin:miter;stroke-opacity:1" />
    <path
       sodipodi:nodetypes="cccc"
       inkscape:connector-curvature="0"
       id="path132"
       d="m 211.71055,167.48 31.84823,0.21253 c 0,0 9.16496,20.85028 41.92969,35.05596 C 238.97631,203.89411 211.71055,167.48 211.71055,167.48 Z"
       style="fill:#3b683d;fill-opacity:1;stroke:none;stroke-width:1px;stroke-linecap:butt;stroke-linejoin:miter;stroke-opacity:1" />
    <path
       sodipodi:nodetypes="ccsscssc"
       inkscape:connector-curvature="0"
       id="path134"
       d="m 205.29508,167.48 -9.85233,0.21253 c 0,0 10.01875,42.09095 45.05122,62.62736 17.51624,10.2682 52.95099,19.36015 78.36785,9.11322 25.41686,-10.24693 63.17391,-31.40794 64.92083,-90.0705 -8.06805,18.30388 -19.53119,41.0766 -64.89443,57.02126 -21.67467,7.6184 -48.4795,3.9993 -64.156,-1.44472 C 223.37921,194.0511 205.29508,167.48 205.29508,167.48 Z"
       style="fill:#53924b;fill-opacity:1;stroke:none;stroke-width:1px;stroke-linecap:butt;stroke-linejoin:miter;stroke-opacity:1" />
    <text
       transform="scale(1.0705707,0.93408123)"
       id="text4678"
       y="142.3"
       x="249.4063"
       style="font-style:normal;font-weight:normal;font-size:37.36326599px;line-height:0.75;font-family:sans-serif;text-align:end;letter-spacing:1.73000002px;word-spacing:0px;text-anchor:end;fill:#4d8e46;fill-opacity:1;stroke:none;stroke-width:0.93408144"
       xml:space="preserve"><tspan
         style="font-size:34.87239075px;line-height:0.80000001;text-align:end;letter-spacing:1.73000002px;text-anchor:end;fill:#4d8e46;fill-opacity:1;stroke-width:0.93408144"
         y="142.3"
         x="251.13629"
         id="tspan4676"
         sodipodi:role="line">GREEN TAG</tspan><tspan
         id="tspan4730"
         style="font-size:34.87239075px;line-height:0.80000001;text-align:end;letter-spacing:4.67999983px;text-anchor:end;fill:#4d8e46;fill-opacity:1;stroke-width:0.93408144"
         y="170.90723"
         x="254.0863"
         sodipodi:role="line">CERTIFIED</tspan></text>
    <text
       id="text4734"
       y="106.05953"
       x="264.20535"
       style="font-style:normal;font-variant:normal;font-weight:bold;font-stretch:normal;font-size:10.66666698px;line-height:1.25;font-family:sans-serif;-inkscape-font-specification:'sans-serif, Bold';font-variant-ligatures:normal;font-variant-caps:normal;font-variant-numeric:normal;font-feature-settings:normal;text-align:start;letter-spacing:0px;word-spacing:0px;writing-mode:lr-tb;text-anchor:start;fill:#4d8e46;fill-opacity:1;stroke:none"
       xml:space="preserve"><tspan
         style="font-style:normal;font-variant:normal;font-weight:bold;font-stretch:normal;font-size:10.66666698px;font-family:sans-serif;-inkscape-font-specification:'sans-serif, Bold';font-variant-ligatures:normal;font-variant-caps:normal;font-variant-numeric:normal;font-feature-settings:normal;text-align:start;writing-mode:lr-tb;text-anchor:start;fill:#4d8e46;fill-opacity:1"
         y="106.05953"
         x="264.20535"
         id="tspan4732"
         sodipodi:role="line">TM</tspan></text>
  </g>
</svg>
